<?xml version="1.0" encoding="UTF-8"?>
<svg width="32px" height="32px" viewBox="0 0 32 32" version="1.1" xmlns="http://www.w3.org/2000/svg" xmlns:xlink="http://www.w3.org/1999/xlink">
    <!-- Generator: Sketch 46.2 (44496) - http://www.bohemiancoding.com/sketch -->
    <title>documentation</title>
    <desc>Created with Sketch.</desc>
    <defs></defs>
    <g id="Page-1" stroke="none" stroke-width="1" fill="none" fill-rule="evenodd">
        <g id="documentation" fill="#000000">
            <path d="M16,32 C7.163444,32 0,24.836556 0,16 C0,7.163444 7.163444,0 16,0 C24.836556,0 32,7.163444 32,16 C32,24.836556 24.836556,32 16,32 Z M16,31 C24.2842712,31 31,24.2842712 31,16 C31,7.71572875 24.2842712,1 16,1 C7.71572875,1 1,7.71572875 1,16 C1,24.2842712 7.71572875,31 16,31 Z" id="Combined-Shape"></path>
            <g id="Group-2" transform="translate(8.000000, 9.000000)" fill-rule="nonzero">
                <path d="M15.600625,1.2005 C14.5551875,0.415125 13.310125,0 11.9999375,0 C11.0539375,0 10.1111875,0.2261875 9.2736875,0.6540625 C8.8146875,0.8885625 8.3854375,1.1841875 8,1.5290625 C7.6145,1.1841875 7.18525,0.8885625 6.72625,0.6540625 C5.88875,0.2261875 4.946,0 4,0 C2.689875,0 1.4448125,0.415125 0.3994375,1.200375 C0.148,1.38925 0,1.6854375 0,1.9999375 L0,12.0000625 C0,12.3789375 0.2141875,12.7253125 0.553125,12.894625 C0.6945625,12.96525 0.847625,13.0000625 0.999875,13.0000625 C1.212625,13.0000625 1.424,12.93225 1.6005625,12.799625 C2.296875,12.2765625 3.1265625,12.000125 4,12.000125 C5.2698125,12.000125 6.4363125,12.5835 7.2005,13.600625 C7.389375,13.852 7.6855625,14 8,14 C8.3145,14 8.6106875,13.8520625 8.7995625,13.600625 C9.563625,12.5835 10.730125,12.000125 11.9999375,12.000125 C12.8734375,12.000125 13.703125,12.276625 14.399375,12.799625 C14.5759375,12.93225 14.787375,13.000125 15.000125,13.000125 C15.1525,13.000125 15.3054375,12.965375 15.4468125,12.8946875 C15.7858125,12.725375 16,12.379 16,12.000125 L16,2 C16,1.6855625 15.8520625,1.3893125 15.600625,1.2005 Z M4,11.000125 C2.8743125,11.000125 1.8356875,11.3723125 1,12.0000625 L1,1.9999375 C1.8356875,1.3721875 2.8743125,1 4,1 C5.4935625,1 6.8338125,1.65525 7.75,2.6935625 L7.75,12.69375 C6.8338125,11.655375 5.4935625,11.000125 4,11.000125 Z M15,12.000125 C14.1643125,11.3723125 13.125625,11.000125 11.9999375,11.000125 C10.506375,11.000125 9.166125,11.655375 8.25,12.6936875 L8.25,2.6935625 C9.166125,1.6553125 10.506375,1 11.9999375,1 C13.125625,1 14.1643125,1.3721875 15,2 L15,12.000125 Z" id="Shape"></path>
            </g>
        </g>
    </g>
</svg>