<?xml version="1.0" encoding="UTF-8"?>
<svg width="32px" height="32px" viewBox="0 0 32 32" version="1.1" xmlns="http://www.w3.org/2000/svg" xmlns:xlink="http://www.w3.org/1999/xlink">
    <!-- Generator: Sketch 46.2 (44496) - http://www.bohemiancoding.com/sketch -->
    <title>earth</title>
    <desc>Created with Sketch.</desc>
    <defs></defs>
    <g id="Page-1" stroke="none" stroke-width="1" fill="none" fill-rule="evenodd">
        <g id="earth" fill-rule="nonzero" fill="#000000">
            <g id="Group">
                <path d="M19.757085,0.517171717 C18.4615385,0.193939394 17.1659919,0 15.805668,0 C13.7975709,0 11.7894737,0.387878788 9.91093117,1.16363636 C9.71659919,1.22828283 9.58704453,1.35757576 9.39271255,1.48686869 C3.88663968,4.00808081 0,9.56767677 0,16.0323232 C0,24.8242424 7.1902834,32 16,32 C24.8097166,32 32,24.8242424 32,16.0323232 C32,8.53333333 26.7530364,2.1979798 19.757085,0.517171717 Z M21.3117409,2.77979798 C22.0242915,3.23232323 21.1174089,3.94343434 21.1174089,3.94343434 C21.1174089,3.94343434 20.340081,3.74949495 19.8866397,3.74949495 C19.8218623,3.74949495 19.8218623,3.74949495 19.757085,3.74949495 C19.4331984,3.81414141 19.1093117,4.00808081 19.6923077,4.00808081 C19.6923077,4.00808081 19.757085,4.00808081 19.757085,4.00808081 C19.757085,4.00808081 19.757085,4.00808081 19.8218623,4.00808081 C20.4696356,4.00808081 20.9878543,4.52525253 20.9878543,4.52525253 C20.9878543,4.52525253 20.5991903,4.58989899 20.0161943,4.65454545 C19.4331984,4.65454545 18.9797571,5.3010101 18.8502024,5.75353535 C18.7854251,6.20606061 18.1376518,6.65858586 17.9433198,6.78787879 C17.7489879,6.91717172 17.7489879,7.17575758 17.9433198,7.43434343 C18.1376518,7.69292929 18.1376518,8.33939394 18.1376518,8.33939394 L17.8785425,8.4040404 C17.8785425,8.4040404 17.6842105,8.14545455 17.4251012,7.75757576 C17.1659919,7.36969697 16.7773279,7.24040404 16.0647773,7.24040404 C14.8340081,7.24040404 13.7975709,7.82222222 13.7975709,8.53333333 C13.7975709,9.11515152 14.0566802,9.89090909 14.8987854,9.89090909 C15.7408907,9.89090909 15.8704453,9.11515152 15.8704453,9.11515152 L16.5182186,9.11515152 C16.5182186,9.11515152 16.7773279,9.89090909 16.388664,10.6020202 C16.388664,10.6020202 17.4898785,10.7959596 17.6194332,11.4424242 C17.7489879,12.0888889 18.3967611,12.4767677 19.1093117,12.4767677 C19.1093117,12.4767677 19.1740891,12.4767677 19.1740891,12.4767677 C19.757085,12.4767677 20.7935223,11.959596 21.8299595,11.959596 C22.0242915,11.959596 22.2186235,11.959596 22.4129555,12.0242424 C23.6437247,12.2828283 23.8380567,13.3171717 25.0688259,14.2868687 C26.2995951,15.2565657 27.5303644,16.0969697 27.5303644,16.8727273 C27.5303644,17.7131313 26.8178138,19.5878788 24.6153846,21.5919192 C22.4129555,23.5959596 19.0445344,25.9232323 18.3319838,26.569697 C17.8137652,27.0222222 17.9433198,27.5393939 17.9433198,27.5393939 C17.9433198,27.5393939 17.4898785,27.5393939 17.3603239,27.2808081 C17.2307692,27.0868687 17.2955466,26.6989899 17.4898785,26.3757576 C17.8785425,25.6646465 20.534413,22.6909091 20.534413,19.9111111 C20.534413,19.3939394 19.4979757,19.0707071 19.1740891,18.359596 C18.9149798,17.6484848 18.1376518,16.420202 18.3967611,15.3212121 C18.6558704,14.2222222 19.2388664,13.5111111 18.5263158,13.0585859 C17.8785425,12.6707071 17.1659919,12.8 16.7773279,12.2181818 C16.388664,11.7010101 15.2226721,10.6666667 14.3805668,10.6666667 C13.5384615,10.6666667 12.1133603,10.020202 11.854251,9.24444444 C11.5951417,8.46868687 11.0769231,7.36969697 10.6234818,7.11111111 C10.4939271,7.04646465 10.4291498,7.04646465 10.3643725,7.04646465 C10.1700405,7.04646465 10.2348178,7.30505051 10.4939271,7.75757576 C10.8178138,8.27474747 11.2064777,9.11515152 11.2064777,9.11515152 L11.0121457,9.11515152 C11.0121457,9.11515152 10.0404858,8.5979798 9.84615385,7.88686869 C9.71659919,7.36969697 9.91093117,6.98181818 9.71659919,6.72323232 C9.52226721,6.46464646 9.32793522,5.88282828 9.45748988,5.55959596 C9.58704453,5.23636364 10.2348178,4.84848485 10.4939271,4.07272727 C10.6882591,3.49090909 10.2348178,3.03838384 10.2348178,2.77979798 C11.9838057,2.06868687 13.8623482,1.68080808 15.805668,1.68080808 C16.9068826,1.68080808 18.0080972,1.81010101 19.0445344,2.06868687 C19.951417,2.26262626 20.6639676,2.52121212 21.3117409,2.77979798 Z M16,30.3191919 C8.09716599,30.3191919 1.6194332,23.9191919 1.6194332,15.9676768 C1.6194332,10.6666667 4.53441296,6.01212121 8.87449393,3.49090909 C8.87449393,3.55555556 8.93927126,3.62020202 8.93927126,3.68484848 C8.87449393,3.81414141 8.74493927,3.87878788 8.68016194,4.00808081 C8.48582996,4.2020202 8.22672065,4.46060606 8.03238866,4.84848485 C7.6437247,5.68888889 7.90283401,6.59393939 8.22672065,7.24040404 C8.22672065,7.4989899 8.22672065,7.82222222 8.29149798,8.21010101 C8.68016194,9.56767677 10.0404858,10.3434343 10.2995951,10.4727273 C10.4939271,10.5373737 10.6882591,10.6020202 10.8825911,10.6666667 C11.7246964,11.6363636 13.2793522,12.2181818 14.3157895,12.2181818 C14.6396761,12.2828283 15.2874494,12.8 15.4817814,13.1232323 C15.9352227,13.769697 16.5182186,14.0282828 16.9716599,14.1575758 C16.9068826,14.3515152 16.8421053,14.610101 16.7773279,14.8686869 C16.4534413,16.2909091 17.1012146,17.7131313 17.4898785,18.5535354 C17.5546559,18.6828283 17.6194332,18.8121212 17.6842105,18.9414141 C17.9433198,19.6525253 18.4615385,20.040404 18.8502024,20.3636364 C18.5910931,22.0444444 17.2955466,23.8545455 16.582996,24.759596 C16.3238866,25.0828283 16.194332,25.3414141 16.0647773,25.5353535 C15.5465587,26.440404 15.5465587,27.4747475 16.0647773,28.1858586 C16.6477733,29.0262626 17.6842105,29.0909091 17.9433198,29.0909091 C17.9433198,29.0909091 17.9433198,29.0909091 18.0080972,29.0909091 C18.4615385,29.0909091 18.9797571,28.8969697 19.2388664,28.5090909 C19.4331984,28.2505051 19.562753,27.9272727 19.6275304,27.6040404 C19.8866397,27.3454545 20.4696356,26.9575758 21.0526316,26.5050505 C22.4129555,25.4707071 24.3562753,24.0484848 25.7813765,22.6909091 C28.3076923,20.3636364 29.2145749,18.0363636 29.2145749,16.7434343 C29.2145749,15.1919192 27.854251,14.1575758 26.4291498,13.1232323 L26.1052632,12.8646465 C25.7813765,12.6060606 25.5222672,12.2828283 25.2631579,12.0242424 C24.8097166,11.4424242 24.097166,10.6020202 22.8016194,10.3434343 C22.4777328,10.2787879 22.2186235,10.2787879 21.8947368,10.2787879 C21.0526316,10.2787879 20.340081,10.4727273 19.757085,10.6666667 C19.562753,10.7313131 19.3036437,10.7959596 19.1740891,10.7959596 C19.0445344,10.4080808 18.8502024,10.0848485 18.5263158,9.82626263 L18.5263158,9.82626263 C19.2388664,9.63232323 19.6923077,8.98585859 19.6923077,8.21010101 C19.6923077,7.95151515 19.6275304,7.69292929 19.562753,7.36969697 C19.8866397,7.04646465 20.2105263,6.65858586 20.340081,6.14141414 C20.7935223,6.07676768 21.1174089,6.07676768 21.1821862,6.01212121 C21.7651822,5.88282828 22.2834008,5.49494949 22.4777328,4.91313131 C22.4777328,4.78383838 22.5425101,4.71919192 22.5425101,4.58989899 C22.8016194,4.33131313 22.9959514,3.94343434 23.0607287,3.49090909 C27.3360324,5.94747475 30.2510121,10.6020202 30.2510121,15.9030303 C30.3805668,23.9191919 23.902834,30.3191919 16,30.3191919 Z" id="Shape"></path>
                <path d="M23.8831195,7 C22.981138,7 22.208011,7.24242424 22.0791565,7.3030303 C21.5637385,7.48484848 21.1771749,7.84848485 21.0483204,8.33333333 C20.9194659,8.81818182 21.0483204,9.36363636 21.4348839,9.72727273 C21.692593,9.96969697 22.2724382,10.4545455 23.6254105,10.6969697 L24.9139555,10.9393939 C25.04281,10.9393939 25.1072373,11 25.2360918,11 C25.9447916,11 26.5246368,10.5757576 26.7823458,9.96969697 L26.9112003,9.54545455 C27.1044821,9 26.9756276,8.45454545 26.5890641,8.03030303 C25.8803643,7.3030303 24.9139555,7 23.8831195,7 L23.8831195,7 Z M25.1716645,9.48484848 C25.1716645,9.48484848 24.6562465,9.36363636 23.8831195,9.24242424 C22.9167107,9.06060606 22.5945745,8.75757576 22.5945745,8.75757576 C22.5945745,8.75757576 23.1744197,8.57575758 23.8831195,8.57575758 C24.3985375,8.57575758 24.9783828,8.6969697 25.3649463,9.12121212 L25.1716645,9.48484848 Z" id="Shape"></path>
                <path d="M5.53694263,13 C3.99890749,13 2.90946593,13.5217391 2.78129633,13.5797101 C2.33270275,13.8115942 2.07636355,14.2173913 2.01227876,14.6231884 C1.94819396,15.0869565 2.14044835,15.4927536 2.46087234,15.8405797 C2.65312673,16.0144928 3.29397471,16.4782609 4.44750107,16.5362319 C4.83200986,16.7681159 5.34468824,17 6.17779061,17 C7.65174096,17 8.54892813,16.2463768 8.86935212,15.5507246 C9.12569131,15.0289855 8.99752171,14.3913043 8.54892813,13.9855072 C8.29258894,13.8695652 7.33131697,13 5.53694263,13 Z M6.11370581,15.6086957 C5.15243385,15.6086957 5.34468824,15.1449275 4.44750107,15.1449275 C3.80665309,15.1449275 3.48622911,14.9130435 3.48622911,14.9130435 C3.48622911,14.9130435 4.31933148,14.5072464 5.47285784,14.5072464 C6.6263842,14.5072464 7.26723217,15.0869565 7.26723217,15.0869565 C7.26723217,15.0869565 7.07497778,15.6086957 6.11370581,15.6086957 Z" id="Shape"></path>
            </g>
        </g>
    </g>
</svg>