<svg width="32" height="32" viewBox="0 0 32 32" version="1.1" xmlns="http://www.w3.org/2000/svg" xmlns:xlink="http://www.w3.org/1999/xlink">
<title>export</title>
<desc>Created using Figma</desc>
<g id="Canvas" transform="translate(-587 -414)">
<g id="export">
<g id="Fill 366 + Fill 367">
<g id="Fill 366">
<use xlink:href="#path0_fill" transform="translate(587 414)" fill="#231F20"/>
</g>
<g id="Fill 367">
<use xlink:href="#path1_fill" transform="translate(598.375 422)" fill="#231F20"/>
</g>
</g>
</g>
</g>
<defs>
<path id="path0_fill" fill-rule="evenodd" d="M 30.0012 0L 7.33364 0C 6.22826 0 5.33356 0.894667 5.33356 2L 5.33356 14.6667L 2.00008 14.6667C 0.896037 14.6667 0 15.5613 0 16.6667L 0 30C 0 31.1053 0.894704 32 2.00008 32L 15.334 32C 16.438 32 17.3341 31.1053 17.3341 30L 17.3341 26.6667L 30.0012 26.6667C 31.1066 26.6653 32 25.772 32 24.6667L 32 2C 32 0.894667 31.1053 0 30.0012 0L 30.0012 0ZM 16.0007 30C 15.9993 30.368 15.7006 30.6653 15.334 30.6667L 2.00007 30.6667C 1.63205 30.6653 1.33471 30.368 1.33337 30L 1.33337 16.6667C 1.33471 16.2987 1.63205 16 2.00007 16L 5.33354 16L 5.33354 24.6667C 5.33354 25.772 6.22824 26.6653 7.33362 26.6667L 16.0007 26.6667L 16.0007 30L 16.0007 30ZM 30.0012 25.3333L 7.33363 25.3333C 6.96561 25.332 6.66693 25.0347 6.66693 24.6667L 6.66693 2.00001C 6.66693 1.63201 6.96561 1.33334 7.33363 1.33334L 30.0012 1.33334C 30.3693 1.33334 30.6666 1.63201 30.6679 2.00001L 30.6679 24.6667C 30.6666 25.0347 30.3693 25.332 30.0012 25.3333L 30.0012 25.3333Z"/>
<path id="path1_fill" fill-rule="evenodd" d="M 12.6169 0.412C 12.5835 0.333333 12.5369 0.262667 12.4769 0.201333C 12.4755 0.2 12.4742 0.197333 12.4729 0.194667C 12.4715 0.193333 12.4689 0.193333 12.4675 0.192C 12.4062 0.132 12.3355 0.084 12.2555 0.0506667C 12.1768 0.0186667 12.0928 0.00266667 12.0102 0.00133333C 12.0062 0.00133333 12.0048 0 12.0008 0L 5.02588 0C 4.65786 0 4.35918 0.298667 4.35918 0.666667C 4.35918 1.03467 4.65786 1.33333 5.02588 1.33333L 10.3914 1.33333L 0.195008 11.528C -0.0650027 11.7893 -0.0650027 12.2107 0.195008 12.4707C 0.456352 12.732 0.879037 12.732 1.13905 12.4707L 11.3341 2.276L 11.3341 7.64133C 11.3341 8.00933 11.6328 8.308 12.0008 8.308C 12.3688 8.308 12.6675 8.00933 12.6675 7.64133L 12.6675 0.666667C 12.6675 0.642667 12.6569 0.621333 12.6542 0.597333C 12.6475 0.534667 12.6409 0.472 12.6169 0.412"/>
</defs>
</svg>
