<?xml version="1.0" encoding="UTF-8"?>
<svg width="32px" height="32px" viewBox="0 0 32 32" version="1.1" xmlns="http://www.w3.org/2000/svg" xmlns:xlink="http://www.w3.org/1999/xlink">
    <!-- Generator: Sketch 46.2 (44496) - http://www.bohemiancoding.com/sketch -->
    <title>galaxy</title>
    <desc>Created with Sketch.</desc>
    <defs></defs>
    <g id="Page-1" stroke="none" stroke-width="1" fill="none" fill-rule="evenodd">
        <g id="galaxy" fill-rule="nonzero" fill="#000000">
            <g id="Group">
                <circle id="Oval" cx="18" cy="4" r="1"></circle>
                <circle id="Oval" cx="1" cy="6" r="1"></circle>
                <circle id="Oval" cx="2" cy="9" r="1"></circle>
                <circle id="Oval" cx="30" cy="23" r="1"></circle>
                <circle id="Oval" cx="31" cy="15" r="1"></circle>
                <circle id="Oval" cx="11" cy="26" r="1"></circle>
                <path d="M26.7895717,26.0909091 C24.1427685,28.7828283 20.5921788,30.2929293 16.8479205,30.2929293 C13.1036623,30.2929293 9.55307263,28.7828283 6.9062694,26.0909091 C4.84047176,23.989899 3.67846058,21.1010101 3.67846058,18.1464646 C3.67846058,15.1262626 4.84047176,12.3030303 6.9062694,10.2020202 C8.58472998,8.49494949 10.7150838,7.57575758 13.0391061,7.57575758 C15.3631285,7.57575758 17.5580385,8.49494949 19.1719429,10.2020202 C21.8187461,12.8939394 21.8187461,17.2929293 19.1719429,19.9848485 C18.849162,20.3131313 18.849162,20.7727273 19.1719429,21.1010101 C19.4947238,21.4292929 19.946617,21.4292929 20.2693979,21.1010101 C23.5617629,17.7525253 23.5617629,12.3686869 20.2693979,9.08585859 C18.3327126,7.11616162 15.7504655,6 12.97455,6 C10.1986344,6 7.68094351,7.11616162 5.67970205,9.08585859 C3.29112353,11.5151515 2,14.7323232 2,18.2121212 C2,21.6262626 3.29112353,24.9090909 5.67970205,27.3383838 C8.64928616,30.3585859 12.5226567,32 16.7188082,32 C20.9149597,32 24.7883302,30.3585859 27.7579143,27.3383838 C28.0806952,27.010101 28.0806952,26.5505051 27.7579143,26.2222222 C27.4351335,25.8939394 27.0477964,25.7626263 26.7895717,26.0909091 Z" id="Shape"></path>
                <path d="M2.24088944,4.69067055 C1.91970352,5.02156076 1.91970352,5.48480705 2.24088944,5.81569726 C2.56207536,6.14658747 3.01173564,6.14658747 3.33292156,5.81569726 C8.79308215,0.190563709 17.6578135,0.190563709 23.1179741,5.81569726 C25.1735639,7.9333946 26.3298332,10.8452284 26.3298332,13.8232403 C26.3298332,16.8674302 25.1735639,19.713086 23.1179741,21.8307834 C21.4478073,23.5514125 19.3279802,24.477905 17.0154416,24.477905 C14.702903,24.477905 12.5188388,23.5514125 10.9129092,21.8307834 C9.62816553,20.5072225 8.92155652,18.7865934 8.92155652,16.8674302 C8.92155652,15.0144451 9.62816553,13.2276379 10.9129092,11.9040771 C11.2340951,11.5731869 11.2340951,11.1099406 10.9129092,10.7790504 C10.5917233,10.4481602 10.142063,10.4481602 9.82087708,10.7790504 C6.54478073,14.1541305 6.54478073,19.5807299 9.82087708,22.889632 C11.7479926,24.8749733 14.3174799,26 17.0796788,26 C19.8418777,26 22.3471279,24.8749733 24.3384805,22.889632 C26.7152563,20.4410445 28,17.1983204 28,13.6908842 C28,10.2496261 26.7152563,6.94072397 24.3384805,4.49213642 C18.1717109,-1.53006538 8.27918468,-1.53006538 2.24088944,4.69067055 Z" id="Shape"></path>
                <path d="M15.5,10 C13,10 11,12 11,14.5 C11,17 13,19 15.5,19 C18,19 20,17 20,14.5 C20,12.0625 17.9375,10 15.5,10 Z M15.5,17.5 C13.875,17.5 12.5,16.125 12.5,14.5 C12.5,12.875 13.875,11.5 15.5,11.5 C17.125,11.5 18.5,12.875 18.5,14.5 C18.5,16.1875 17.125,17.5 15.5,17.5 Z" id="Shape"></path>
            </g>
        </g>
    </g>
</svg>