<?xml version="1.0" encoding="UTF-8"?>
<svg width="32px" height="32px" viewBox="0 0 32 32" version="1.1" xmlns="http://www.w3.org/2000/svg" xmlns:xlink="http://www.w3.org/1999/xlink">
    <!-- Generator: Sketch 46.2 (44496) - http://www.bohemiancoding.com/sketch -->
    <title>observatory</title>
    <desc>Created with Sketch.</desc>
    <defs></defs>
    <g id="Page-1" stroke="none" stroke-width="1" fill="none" fill-rule="evenodd">
        <g id="observatory" fill-rule="nonzero" fill="#000000">
            <g id="Group" transform="translate(0.000000, 3.000000)">
                <path d="M23.6857143,16 C23.2857143,16 23,16.4067797 23,16.8135593 L23,19.1864407 C23,19.6610169 23.3428571,20 23.6857143,20 L26.3142857,20 C26.7142857,20 27,19.5932203 27,19.1864407 L27,16.8135593 C27,16.3389831 26.6571429,16 26.3142857,16 L23.6857143,16 Z M25.6285714,18.3728814 L24.4285714,18.3728814 L24.4285714,17.6949153 L25.6285714,17.6949153 L25.6285714,18.3728814 Z" id="Shape"></path>
                <path d="M13.3091123,16 L10.6846439,16 C10.2852683,16 10,16.4067797 10,16.8135593 L10,19.1864407 C10,19.6610169 10.342322,20 10.6846439,20 L13.3091123,20 C13.7084879,20 13.9937562,19.5932203 13.9937562,19.1864407 L13.9937562,16.8135593 C14.0508099,16.4067797 13.7084879,16 13.3091123,16 Z M12.6244684,18.3728814 L11.4263415,18.3728814 L11.4263415,17.6949153 L12.6244684,17.6949153 L12.6244684,18.3728814 Z" id="Shape"></path>
                <path d="M20.3142857,16 L17.6857143,16 C17.2857143,16 17,16.4067797 17,16.8135593 L17,19.1864407 C17,19.6610169 17.3428571,20 17.6857143,20 L20.3142857,20 C20.7142857,20 21,19.5932203 21,19.1864407 L21,16.8135593 C21,16.4067797 20.7142857,16 20.3142857,16 Z M19.5714286,18.3728814 L18.3714286,18.3728814 L18.3714286,17.6949153 L19.5714286,17.6949153 L19.5714286,18.3728814 Z" id="Shape"></path>
                <path d="M31.3469388,6.10966057 C31.6734694,5.77023499 31.6734694,5.29503916 31.3469388,4.95561358 L27.3632653,0.54308094 C27.0367347,0.203655352 26.5142857,0.203655352 26.1877551,0.54308094 L24.9469388,1.90078329 C22.9877551,0.678851175 20.7020408,0 18.4163265,0 C17.9591837,0 17.6326531,0.407310705 17.6326531,0.81462141 L17.6326531,2.37597911 C11.755102,2.78328982 7.05306122,7.94255875 7.05306122,14.1879896 L7.05306122,18.1253264 L0.783673469,18.1253264 C0.326530612,18.1253264 0,18.5326371 0,18.9399478 L0,25.1853786 C0,25.6605744 0.391836735,26 0.783673469,26 L7.83673469,26 L28.9959184,26 C29.4530612,26 29.7795918,25.5926893 29.7795918,25.1853786 L29.7795918,15.002611 L31.2163265,15.002611 C31.6734694,15.002611 32,14.5953003 32,14.1879896 C32,11.8120104 31.3469388,9.43603133 30.1714286,7.39947781 L31.3469388,6.10966057 Z M26.7102041,2.37597911 L29.5836735,5.56657963 L29.1918367,5.97389034 C28.3428571,4.81984334 27.3632653,3.73368146 26.1877551,2.85117493 L26.7102041,2.37597911 Z M11.2326531,13.3733681 C11.4938776,8.01044386 14.1714286,5.4308094 16.4571429,4.48041775 C15.0204082,7.26370757 14.8897959,10.997389 14.8897959,13.3733681 L11.2326531,13.3733681 Z M18.3510204,4.54830287 C19.9836735,6.92428198 20.1795918,10.8616188 20.1795918,13.3733681 L16.522449,13.3733681 C16.522449,10.8616188 16.7183673,6.92428198 18.3510204,4.54830287 Z M21.8122449,13.3733681 C21.8122449,10.997389 21.6163265,7.26370757 20.244898,4.48041775 C22.5306122,5.4308094 25.2081633,8.01044386 25.4693878,13.3733681 L21.8122449,13.3733681 Z M27.0367347,13.3733681 C26.9061224,10.997389 26.3836735,9.02872063 25.6,7.46736292 C26.9714286,9.09660574 27.8857143,11.1331593 28.0163265,13.3733681 L27.0367347,13.3733681 Z M11.0367347,7.46736292 C10.2530612,9.02872063 9.73061224,10.9295039 9.6,13.3733681 L8.62040816,13.3733681 C8.75102041,11.1331593 9.66530612,9.09660574 11.0367347,7.46736292 Z M1.50204082,19.8224543 L6.92244898,19.8224543 L6.92244898,24.3707572 L1.50204082,24.3707572 L1.50204082,19.8224543 Z M28.0816327,24.3707572 L8.55510204,24.3707572 L8.55510204,19.0078329 L8.55510204,15.0704961 L28.0816327,15.0704961 L28.0816327,24.3707572 Z M29.7142857,13.3733681 C29.322449,7.53524804 24.8163265,2.78328982 19.1346939,2.37597911 L19.1346939,1.69712794 C24.8163265,2.17232376 29.9102041,7.39947781 30.3020408,13.305483 L29.7142857,13.305483 L29.7142857,13.3733681 Z" id="Shape"></path>
            </g>
        </g>
    </g>
</svg>