<?xml version="1.0" encoding="UTF-8"?>
<svg width="32px" height="32px" viewBox="0 0 32 32" version="1.1" xmlns="http://www.w3.org/2000/svg" xmlns:xlink="http://www.w3.org/1999/xlink">
    <!-- Generator: Sketch 46.2 (44496) - http://www.bohemiancoding.com/sketch -->
    <title>play</title>
    <desc>Created with Sketch.</desc>
    <defs></defs>
    <g id="Page-1" stroke="none" stroke-width="1" fill="none" fill-rule="evenodd">
        <g id="play" fill="#000000">
            <path d="M17.7339205,11.63145 L24.0289162,19.3253337 L24.0289162,19.3253337 C24.2037799,19.5390561 24.1722788,19.8540674 23.9585564,20.0289312 C23.8692253,20.1020203 23.7573587,20.1419526 23.6419375,20.1419526 L11.0519461,20.1419526 L11.0519461,20.1419526 C10.7758037,20.1419526 10.5519461,19.9180949 10.5519461,19.6419526 C10.5519461,19.5265314 10.5918784,19.4146647 10.6649675,19.3253337 L16.9599632,11.63145 L16.9599632,11.63145 C17.134827,11.4177276 17.4498383,11.3862265 17.6635607,11.5610903 C17.6892951,11.5821457 17.712865,11.6057156 17.7339205,11.63145 Z" id="Triangle" transform="translate(17.346949, 15.795003) rotate(90.000000) translate(-17.346949, -15.795003) "></path>
            <path d="M16,32 C7.163444,32 0,24.836556 0,16 C0,7.163444 7.163444,0 16,0 C24.836556,0 32,7.163444 32,16 C32,24.836556 24.836556,32 16,32 Z M16,31 C24.2842712,31 31,24.2842712 31,16 C31,7.71572875 24.2842712,1 16,1 C7.71572875,1 1,7.71572875 1,16 C1,24.2842712 7.71572875,31 16,31 Z" id="Combined-Shape"></path>
        </g>
    </g>
</svg>