<?xml version="1.0" encoding="UTF-8"?>
<svg width="32px" height="32px" viewBox="0 0 32 32" version="1.1" xmlns="http://www.w3.org/2000/svg" xmlns:xlink="http://www.w3.org/1999/xlink">
    <!-- Generator: Sketch 46.2 (44496) - http://www.bohemiancoding.com/sketch -->
    <title>rocket</title>
    <desc>Created with Sketch.</desc>
    <defs></defs>
    <g id="Page-1" stroke="none" stroke-width="1" fill="none" fill-rule="evenodd">
        <g id="rocket" fill-rule="nonzero" fill="#000000">
            <g id="svg" transform="translate(6.000000, 0.000000)">
                <path d="M0.875572569,19.2751583 L5.8635929,19.2751583 L5.8635929,21.2568614 C5.8635929,21.6903589 6.22857,22 6.59354709,22 L13.5281119,22 C13.9539186,22 14.2580661,21.6284307 14.2580661,21.2568614 L14.2580661,19.2751583 L19.2460865,19.2751583 C19.550234,19.2751583 19.7935521,19.0893737 19.9152111,18.8416608 C20.0368702,18.5939479 20.0368702,18.2843068 19.8543816,18.0365939 L14.1972366,9.18085855 L14.1972366,7.81843772 C14.1972366,2.92610837 10.5474656,0.263194933 10.4258066,0.139338494 C10.1824885,-0.0464461647 9.81751145,-0.0464461647 9.57419339,0.139338494 C9.39170484,0.263194933 5.80276338,2.92610837 5.80276338,7.81843772 L5.80276338,9.18085855 L0.145618375,18.0365939 C-0.0368701741,18.2843068 -0.0368701741,18.5939479 0.0847888583,18.8416608 C0.328106923,19.1513019 0.571424988,19.2751583 0.875572569,19.2751583 Z M12.8589873,20.4517945 L7.44516032,20.4517945 L7.44516032,19.2751583 L12.8589873,19.2751583 L12.8589873,20.4517945 Z M17.9686666,17.7269529 L14.3797252,17.7269529 L14.3797252,12.0914849 L17.9686666,17.7269529 Z M7.3843308,7.94229416 C7.3843308,4.78395496 9.20921629,2.6783955 10.121659,1.87332864 C10.9732723,2.6783955 12.8589873,4.78395496 12.8589873,7.94229416 L12.8589873,9.49049965 L12.8589873,17.7269529 L7.44516032,17.7269529 L7.44516032,9.49049965 L7.44516032,7.94229416 L7.3843308,7.94229416 Z M5.8635929,12.0914849 L5.8635929,17.7269529 L2.27465144,17.7269529 L5.8635929,12.0914849 Z" id="Shape"></path>
                <path d="M8.66666667,9 L11.3333333,9 C11.7222222,9 12,8.5 12,8 C12,7.5 11.6666667,7 11.3333333,7 L8.66666667,7 C8.27777778,7 8,7.5 8,8 C8,8.5 8.27777778,9 8.66666667,9 Z" id="Shape"></path>
                <path d="M13.3333333,23 L11.7857143,23 L8.1547619,23 L6.60714286,23 C6.42857143,23 6.25,23.0647482 6.07142857,23.2589928 C6.01190476,23.323741 5,24.4244604 5,26.1079137 C5,28.2446043 6.54761905,30.2517986 9.64285714,31.9352518 C9.76190476,32 9.88095238,32 10,32 C10.1190476,32 10.2380952,32 10.3571429,31.9352518 C13.452381,30.2517986 15,28.3093525 15,26.1079137 C15,24.4244604 13.9880952,23.2589928 13.9285714,23.2589928 C13.6904762,23.0647482 13.5119048,23 13.3333333,23 Z M11.3095238,24.618705 C11.4285714,24.8776978 11.4880952,25.2014388 11.4880952,25.4604317 C11.4880952,25.5899281 11.4285714,26.7553957 9.94047619,27.6618705 C8.45238095,26.6906475 8.39285714,25.5899281 8.39285714,25.4604317 C8.39285714,25.2014388 8.45238095,24.8776978 8.57142857,24.618705 L11.3095238,24.618705 Z M9.94047619,30.3165468 C7.67857143,29.0215827 6.42857143,27.5971223 6.42857143,26.1726619 C6.42857143,25.5251799 6.72619048,24.942446 6.9047619,24.6834532 L7.02380952,24.6834532 C6.96428571,24.942446 6.9047619,25.2661871 6.9047619,25.5251799 C6.9047619,26.6906475 7.61904762,28.3093525 9.58333333,29.4100719 C9.70238095,29.4748201 9.82142857,29.4748201 9.94047619,29.4748201 C10.0595238,29.4748201 10.1785714,29.4748201 10.297619,29.4100719 C12.2619048,28.3093525 12.9761905,26.6906475 12.9761905,25.5251799 C12.9761905,25.2661871 12.9166667,24.942446 12.8571429,24.6834532 L12.9761905,24.6834532 C13.1547619,25.0071942 13.452381,25.5251799 13.452381,26.1726619 C13.452381,27.5323741 12.202381,28.9568345 9.94047619,30.3165468 Z" id="Shape"></path>
            </g>
        </g>
    </g>
</svg>