<?xml version="1.0" encoding="UTF-8"?>
<svg width="32px" height="32px" viewBox="0 0 32 32" version="1.1" xmlns="http://www.w3.org/2000/svg" xmlns:xlink="http://www.w3.org/1999/xlink">
    <!-- Generator: Sketch 46.2 (44496) - http://www.bohemiancoding.com/sketch -->
    <title>rocket</title>
    <desc>Created with Sketch.</desc>
    <defs></defs>
    <g id="Page-1" stroke="none" stroke-width="1" fill="none" fill-rule="evenodd">
        <g id="rocket" fill-rule="nonzero" fill="#000000">
            <g id="Group" transform="translate(3.500000, 0.500000)">
                <path d="M21.5938303,19.6122449 C20.7583548,18.8530612 19.8586118,18.0306122 18.8946015,16.8918367 C16.8380463,14.4877551 16.3881748,8.92040816 16.1953728,5.88367347 C16.1311054,5.06122449 16.066838,4.42857143 16.0025707,4.04897959 C15.4241645,0.695918367 13.7532134,0 12.4678663,0 C11.1825193,0 9.44730077,0.695918367 8.93316195,4.04897959 C8.8688946,4.42857143 8.80462725,5.1244898 8.7403599,5.88367347 C8.54755784,8.85714286 8.09768638,14.4244898 6.04113111,16.8918367 C5.07712082,18.0306122 4.17737789,18.8530612 3.34190231,19.6122449 C1.4781491,21.3204082 0,22.7122449 0,25.5591837 C0,25.9387755 0.257069409,26.255102 0.642673522,26.3183673 L9.38303342,28.2795918 C9.38303342,29.0387755 9.51156812,29.6081633 9.83290488,30.0510204 C10.4113111,30.9367347 11.503856,31 12.5321337,31 C13.6246787,31 14.6529563,30.9367347 15.2313625,30.0510204 C15.5526992,29.6081633 15.6169666,29.0387755 15.6812339,28.2795918 L24.3573265,26.3183673 C24.7429306,26.255102 25,25.9387755 25,25.5591837 C24.9357326,22.6489796 23.4575835,21.3204082 21.5938303,19.6122449 Z M18.1876607,24.0408163 C18.1876607,23.5979592 18.5732648,23.2183673 19.0874036,23.2183673 C19.6015424,23.2183673 19.9871465,23.5979592 19.9871465,24.0408163 C19.9871465,24.4836735 19.6015424,24.8632653 19.0874036,24.8632653 C18.5732648,24.8632653 18.1876607,24.4836735 18.1876607,24.0408163 Z M21.0796915,25.4326531 C21.3367609,25.0530612 21.529563,24.5469388 21.529563,24.0408163 C21.529563,22.7122449 20.437018,21.6367347 19.0231362,21.6367347 C17.6735219,21.6367347 16.5167095,22.7122449 16.5167095,24.0408163 C16.5167095,24.9265306 17.0308483,25.7489796 17.8663239,26.1285714 L15.6169666,26.6346939 C15.6169666,26.6346939 15.6169666,26.6346939 15.6169666,26.6346939 L15.6169666,18.1571429 L17.9305913,18.1571429 C18.8303342,19.2326531 19.7300771,20.055102 20.5012853,20.7510204 C22.1079692,22.2061224 23.0719794,23.155102 23.2647815,24.9265306 L21.0796915,25.4326531 Z M12.4678663,29.4183673 C11.4395887,29.4183673 11.1182519,29.2918367 11.0539846,29.1653061 C10.9254499,28.9122449 10.9254499,28.1530612 10.9254499,27.2673469 L10.9254499,27.1408163 C10.9254499,25.7489796 11.8251928,24.0408163 12.4678663,22.9653061 C13.1748072,24.1040816 14.0102828,25.8122449 14.0102828,27.1408163 L14.0102828,27.2673469 C14.0102828,28.1530612 14.0102828,28.9122449 13.8817481,29.1653061 C13.8174807,29.2918367 13.496144,29.4183673 12.4678663,29.4183673 Z M4.4344473,20.7510204 C5.20565553,20.055102 6.10539846,19.2326531 7.00514139,18.1571429 L9.31876607,18.1571429 L9.31876607,26.6346939 L7.06940874,26.1285714 C7.84061697,25.7489796 8.41902314,24.9265306 8.41902314,24.0408163 C8.41902314,22.7122449 7.32647815,21.6367347 5.9125964,21.6367347 C4.56298201,21.6367347 3.40616967,22.7122449 3.40616967,24.0408163 C3.40616967,24.5469388 3.59897172,25.0530612 3.85604113,25.4326531 L1.67095116,24.9265306 C1.79948586,23.155102 2.8277635,22.2061224 4.4344473,20.7510204 Z M10.4755784,4.30204082 C10.9254499,1.58163265 12.0179949,1.58163265 12.4678663,1.58163265 C12.8534704,1.58163265 14.0102828,1.58163265 14.4601542,4.30204082 C14.5244216,4.61836735 14.5886889,5.25102041 14.5886889,6.01020408 C14.781491,8.73061224 15.1670951,13.5387755 16.8380463,16.5755102 L15.6169666,16.5755102 L15.6169666,15.3734694 C15.6169666,14.9306122 15.2313625,14.6142857 14.8457584,14.6142857 C14.3958869,14.6142857 14.0745501,14.9938776 14.0745501,15.3734694 L14.0745501,22.4591837 C13.6246787,21.7 13.2390746,21.1938776 13.1748072,21.1306122 C12.8534704,20.7510204 12.2107969,20.7510204 11.8894602,21.1306122 C11.8251928,21.1938776 11.4395887,21.7 10.9897172,22.522449 L10.9897172,15.3734694 C10.9897172,14.9306122 10.6041131,14.6142857 10.218509,14.6142857 C9.76863753,14.6142857 9.44730077,14.9938776 9.44730077,15.3734694 L9.44730077,16.5755102 L8.22622108,16.5755102 C9.89717224,13.4755102 10.218509,8.73061224 10.4755784,6.01020408 C10.4113111,5.25102041 10.4755784,4.61836735 10.4755784,4.30204082 Z M4.94858612,24.0408163 C4.94858612,23.5979592 5.33419023,23.2183673 5.84832905,23.2183673 C6.36246787,23.2183673 6.74807198,23.5979592 6.74807198,24.0408163 C6.74807198,24.4836735 6.36246787,24.8632653 5.84832905,24.8632653 C5.39845758,24.8632653 4.94858612,24.4836735 4.94858612,24.0408163 Z" id="Shape"></path>
                <path d="M11.3902479,6.92684727 C11.733508,7.11331636 12.1339782,6.92684727 12.3056082,6.55390909 C12.3628183,6.55390909 12.5916584,6.55390909 12.6488684,6.55390909 C12.7632884,6.80253454 13.0493385,6.98900364 13.2781786,6.98900364 C13.3925986,6.98900364 13.4498087,6.98900364 13.5642287,6.92684727 C13.9074888,6.74037818 14.0791189,6.30528364 13.9646989,5.93234545 C13.7930688,5.49725091 13.3353886,5 12.5344483,5 C11.733508,5 11.2186178,5.49725091 11.1041978,5.93234545 C10.8753577,6.30528364 11.0469878,6.74037818 11.3902479,6.92684727 Z" id="Shape"></path>
            </g>
        </g>
    </g>
</svg>