<?xml version="1.0" encoding="UTF-8"?>
<svg width="32px" height="32px" viewBox="0 0 32 32" version="1.1" xmlns="http://www.w3.org/2000/svg" xmlns:xlink="http://www.w3.org/1999/xlink">
    <!-- Generator: Sketch 46.2 (44496) - http://www.bohemiancoding.com/sketch -->
    <title>rover</title>
    <desc>Created with Sketch.</desc>
    <defs></defs>
    <g id="Page-1" stroke="none" stroke-width="1" fill="none" fill-rule="evenodd">
        <g id="rover" fill-rule="nonzero" fill="#000000">
            <path d="M28.8056309,20.7478956 L28.8056309,18.116612 C28.8056309,17.6319019 28.3901651,17.2856804 27.9746993,17.2856804 L21.6042232,17.2856804 L18.6959624,14.3774195 L18.6959624,12.8540448 L20.2885814,11.2614258 C21.327246,12.0231132 22.5043992,12.438579 23.820041,12.438579 C25.41266,12.438579 26.8667904,11.8153803 28.0439436,10.7074714 C28.3901651,10.3612498 28.3901651,9.8072954 28.0439436,9.46107388 L25.0664385,6.48356876 L26.6590575,4.89094974 C27.005279,4.54472821 27.005279,3.99077377 26.6590575,3.64455225 C26.312836,3.29833072 25.7588815,3.29833072 25.41266,3.64455225 L23.820041,5.23717127 L20.8425358,2.25966614 C20.4963143,1.91344462 19.9423599,1.91344462 19.5961384,2.25966614 C18.4882295,3.36757503 17.8650307,4.89094974 17.8650307,6.48356876 C17.8650307,7.79921056 18.2804966,8.97636374 19.0421839,10.0150283 L17.1725877,11.8846246 C17.0340991,12.0231132 16.8956105,12.3000904 16.8956105,12.5078233 L16.8956105,14.3774195 L13.9873496,17.2856804 L8.44780523,17.2856804 L8.44780523,15.623817 L14.3335712,15.623817 C14.8182813,15.623817 15.1645028,15.2083512 15.1645028,14.7928854 L15.1645028,11.3999144 C15.1645028,10.9152043 14.749037,10.5689828 14.3335712,10.5689828 L0.830931662,10.5689828 C0.346221526,10.5689828 0,10.9844486 0,11.3999144 L0,14.7928854 C0,15.2775955 0.415465831,15.623817 0.830931662,15.623817 L6.7166976,15.623817 L6.7166976,18.116612 L6.7166976,20.7478956 C4.77785705,21.1633614 3.32372665,22.8944691 3.32372665,24.9025539 C3.32372665,27.2568603 5.26256719,29.1264565 7.54762926,29.1264565 C9.90193564,29.1264565 11.7715319,27.187616 11.7715319,24.9025539 C11.7715319,23.9331337 11.4253103,23.102202 10.9406002,22.4097589 L14.2643269,22.4097589 C13.7103724,23.102202 13.4333952,24.002378 13.4333952,24.9025539 C13.4333952,27.2568603 15.3722357,29.1264565 17.6572978,29.1264565 C20.0116042,29.1264565 21.8812004,27.187616 21.8812004,24.9025539 C21.8812004,23.9331337 21.5349789,23.102202 21.0502688,22.4097589 L24.3739954,22.4097589 C23.820041,23.102202 23.5430637,24.002378 23.5430637,24.9025539 C23.5430637,27.2568603 25.4819043,29.1264565 27.7669664,29.1264565 C30.1212727,29.1264565 31.990869,27.187616 31.990869,24.9025539 C32.1293576,22.8944691 30.6752272,21.1633614 28.8056309,20.7478956 Z M20.2193371,4.19850669 L23.1275979,7.1067675 L23.1275979,7.1067675 L23.1275979,7.1067675 L26.0358587,10.0150283 C25.3434157,10.4304942 24.5817283,10.7074714 23.7507967,10.7074714 C22.6428878,10.7074714 21.5349789,10.2920055 20.7732915,9.46107388 C20.0116042,8.69938652 19.526894,7.59147764 19.526894,6.48356876 C19.526894,5.7218814 19.8038713,4.89094974 20.2193371,4.19850669 Z M1.66186332,12.2308461 L13.5026395,12.2308461 L13.5026395,13.8927094 L1.66186332,13.8927094 L1.66186332,12.2308461 Z M27.0745233,20.6786513 L8.44780523,20.6786513 L8.44780523,19.016788 L14.3335712,19.016788 L21.1887574,19.016788 L21.1887574,19.016788 L27.0745233,19.016788 L27.0745233,20.6786513 Z M17.7265421,15.9700386 L19.0421839,17.2856804 L16.4109003,17.2856804 L17.7265421,15.9700386 Z M10.1096686,24.9025539 C10.1096686,26.28744 9.00175967,27.3953489 7.61687357,27.3953489 C6.23198746,27.3953489 5.12407858,26.28744 5.12407858,24.9025539 C5.12407858,23.5176678 6.23198746,22.4097589 7.61687357,22.4097589 C9.00175967,22.4097589 10.1096686,23.5176678 10.1096686,24.9025539 Z M20.2885814,24.9025539 C20.2885814,26.28744 19.1806725,27.3953489 17.7957864,27.3953489 C16.4109003,27.3953489 15.3029914,26.28744 15.3029914,24.9025539 C15.3029914,23.5176678 16.4109003,22.4097589 17.7957864,22.4097589 C19.1806725,22.4097589 20.2885814,23.5176678 20.2885814,24.9025539 Z M27.905455,27.4645932 C26.5205689,27.4645932 25.41266,26.3566843 25.41266,24.9717982 C25.41266,23.5869121 26.5205689,22.4790032 27.905455,22.4790032 C29.2903411,22.4790032 30.39825,23.5869121 30.39825,24.9717982 C30.39825,26.3566843 29.2903411,27.4645932 27.905455,27.4645932 Z" id="Shape"></path>
        </g>
    </g>
</svg>