<?xml version="1.0" encoding="UTF-8"?>
<svg width="32px" height="32px" viewBox="0 0 32 32" version="1.1" xmlns="http://www.w3.org/2000/svg" xmlns:xlink="http://www.w3.org/1999/xlink">
    <!-- Generator: Sketch 46.2 (44496) - http://www.bohemiancoding.com/sketch -->
    <title>space-helmet</title>
    <desc>Created with Sketch.</desc>
    <defs></defs>
    <g id="Page-1" stroke="none" stroke-width="1" fill="none" fill-rule="evenodd">
        <g id="space-helmet" transform="translate(1.000000, 0.000000)" fill-rule="nonzero" fill="#000000">
            <path d="M23.7147838,29.1374046 C23.7147838,29.1374046 21.3298466,30.5687023 15.5,30.5687023 C9.80264993,30.5687023 7.35146444,29.1946565 7.28521618,29.1374046 C6.88772664,28.9083969 6.42398884,28.9656489 6.15899582,29.3091603 C5.89400279,29.6526718 5.96025105,30.0534351 6.35774059,30.2824427 C6.4902371,30.3396947 9.20641562,32 15.5,32 C21.7935844,32 24.5760112,30.3969466 24.6422594,30.2824427 C25.039749,30.0534351 25.1059972,29.5954198 24.8410042,29.3091603 C24.5760112,28.9656489 24.1122734,28.9083969 23.7147838,29.1374046 Z" id="Shape"></path>
            <path d="M25.3333333,13.9493671 C23.3333333,13.5063291 19.9333333,13 15,13 C10,13 6.6,13.5063291 4.66666667,13.9493671 C4.33333333,14.0126582 4.06666667,14.3291139 4,14.7088608 C4,14.8987342 4,15.0886076 4,15.278481 L4,15.4050633 C4,17.0506329 4,19.0759494 5,20.7848101 C5.06666667,20.9113924 5.13333333,20.9746835 5.26666667,21.0379747 C6.2,21.6075949 9,23 15,23 C20.9333333,23 23.8,21.6075949 24.7333333,20.9746835 C24.8666667,20.9113924 24.9333333,20.7848101 25,20.721519 C26,19.0126582 26,16.9873418 26,15.3417722 L26,15.2151899 C26,15.0253165 26,14.835443 26,14.6455696 C26,14.3291139 25.7333333,14.0759494 25.3333333,13.9493671 Z M24.3333333,15.4050633 C24.3333333,16.7974684 24.3333333,18.5063291 23.6666667,19.835443 C22.8,20.3417722 20.2666667,21.4810127 15,21.4810127 C9.73333333,21.4810127 7.2,20.3417722 6.33333333,19.835443 C5.66666667,18.5063291 5.66666667,16.7341772 5.66666667,15.3417722 L5.66666667,15.4050633 C7.4,15.0886076 10.5333333,14.5822785 15,14.5822785 C19.4666667,14.5822785 22.6,15.0253165 24.3333333,15.4050633 L24.3333333,15.4050633 Z" id="Shape"></path>
            <path d="M29.0088106,14.5644444 L28.215859,14.5644444 C28.1497797,13.4688889 28.0176211,12.76 28.0176211,12.6955556 C27.9515419,12.4377778 27.753304,12.2444444 27.4889868,12.1155556 C27.4229075,12.1155556 27.1585903,11.9866667 26.5638767,11.8577778 C26.2995595,10.44 25.9030837,9.15111111 25.30837,8.05555556 L25.30837,4.51111111 C26.2334802,4.18888889 26.8942731,3.35111111 26.8942731,2.32 C26.8942731,1.03111111 25.8370044,0 24.5154185,0 C23.1938326,0 22.1365639,1.03111111 22.1365639,2.32 C22.1365639,3.35111111 22.7973568,4.18888889 23.722467,4.51111111 L23.722467,5.73555556 C21.6740088,3.60888889 18.7004405,2.44888889 14.9339207,2.44888889 C8.45814978,2.44888889 4.36123348,5.8 3.23788546,11.8577778 C2.64317181,11.9866667 2.37885463,12.1155556 2.31277533,12.1155556 C2.04845815,12.2444444 1.85022026,12.4377778 1.78414097,12.6955556 C1.78414097,12.76 1.58590308,13.4688889 1.58590308,14.5644444 L0.792951542,14.5644444 C0.330396476,14.5644444 0,14.9511111 0,15.3377778 C0,15.7888889 0.396475771,16.1111111 0.792951542,16.1111111 L1.58590308,16.1111111 C1.58590308,18.0444444 1.78414097,20.4288889 3.17180617,22.62 C3.17180617,22.6844444 3.23788546,22.6844444 3.30396476,22.7488889 C3.37004405,22.8133333 3.76651982,23.2 4.75770925,23.7155556 C5.88105727,26.1644444 6.21145374,27.0022222 6.21145374,27.0022222 C6.27753304,27.1311111 6.40969163,27.3244444 6.54185022,27.3888889 C6.67400881,27.4533333 9.18502203,29 15,29 C20.814978,29 23.3920705,27.4533333 23.4581498,27.3888889 C23.5903084,27.3244444 23.722467,27.1311111 23.7885463,27.0022222 C23.7885463,27.0022222 24.1189427,26.1644444 25.2422907,23.7155556 C26.2334802,23.2 26.6299559,22.8133333 26.6960352,22.7488889 C26.7621145,22.6844444 26.7621145,22.6844444 26.8281938,22.62 C28.2819383,20.4288889 28.4140969,18.0444444 28.4140969,16.1111111 L29.2070485,16.1111111 C29.6696035,16.1111111 30,15.7244444 30,15.3377778 C29.8678414,14.8866667 29.4713656,14.5644444 29.0088106,14.5644444 Z M24.4493392,1.54666667 C24.845815,1.54666667 25.1762115,1.86888889 25.1762115,2.25555556 C25.1762115,2.64222222 24.845815,2.96444444 24.4493392,2.96444444 C24.0528634,2.96444444 23.722467,2.64222222 23.722467,2.25555556 C23.6563877,1.93333333 23.9867841,1.54666667 24.4493392,1.54666667 Z M24.7797357,11.4066667 C23.3259912,11.0844444 21.2114537,10.8266667 18.4361233,10.6333333 L18.4361233,4.51111111 C22.4008811,5.60666667 24.0528634,8.57111111 24.7797357,11.4066667 Z M16.784141,4.18888889 L16.784141,10.6333333 C16.1894273,10.6333333 15.5286344,10.6333333 14.8017621,10.6333333 C14.0748899,10.6333333 13.4801762,10.6333333 12.8193833,10.6333333 L12.8193833,4.18888889 C13.4140969,4.12444444 14.0748899,4.06 14.8017621,4.06 C15.5286344,4.06 16.123348,4.12444444 16.784141,4.18888889 Z M11.1674009,4.51111111 L11.1674009,10.6977778 C8.39207048,10.8266667 6.27753304,11.1488889 4.82378855,11.4711111 C5.55066079,8.57111111 7.20264317,5.60666667 11.1674009,4.51111111 Z M22.2026432,26.1644444 C21.5418502,26.4866667 19.2290749,27.4533333 14.8017621,27.4533333 C10.3744493,27.4533333 8.06167401,26.4866667 7.40088106,26.1644444 C7.26872247,25.9066667 7.07048458,25.3911111 6.74008811,24.6177778 C8.59030837,25.1977778 11.1674009,25.7133333 14.8017621,25.7133333 C18.3700441,25.7133333 21.0132159,25.1977778 22.8634361,24.6177778 C22.4669604,25.3911111 22.2687225,25.9066667 22.2026432,26.1644444 Z M26.5638767,15.4666667 C26.5638767,17.2711111 26.5638767,19.6555556 25.30837,21.7177778 C24.845815,22.04 22.0044053,24.1666667 14.8017621,24.1666667 C7.59911894,24.1666667 4.75770925,22.1044444 4.29515419,21.7177778 C3.03964758,19.72 3.03964758,17.2711111 3.03964758,15.4666667 L3.03964758,15.3377778 C3.03964758,14.5 3.10572687,13.8555556 3.17180617,13.4688889 C4.42731278,13.0822222 8.25991189,12.18 14.8017621,12.18 C21.3436123,12.18 25.1762115,13.1466667 26.4317181,13.4688889 C26.4977974,13.8555556 26.5638767,14.5644444 26.5638767,15.3377778 L26.5638767,15.4666667 L26.5638767,15.4666667 Z" id="Shape"></path>
        </g>
    </g>
</svg>